<svg id="Capa_1" enable-background="new 0 0 512 512" height="512" viewBox="0 0 512 512" width="512" xmlns="http://www.w3.org/2000/svg"><g><path d="m380.222 0h-247.052c-4.903 0-8.892 3.989-8.892 8.892v271.745c0 4.142 3.358 7.5 7.5 7.5s7.5-3.358 7.5-7.5v-62.2h233.443v252.291h-233.443v-155.091c0-4.142-3.358-7.5-7.5-7.5s-7.5 3.358-7.5 7.5v161.198c0 2.283.865 4.368 2.285 5.944v20.007c0 5.08 4.133 9.213 9.213 9.213h22.845c5.08 0 9.213-4.133 9.213-9.213v-17.059h177.226v17.059c0 5.08 4.133 9.213 9.213 9.213h22.845c5.08 0 9.213-4.133 9.213-9.213v-21.18c.88-1.379 1.39-3.015 1.39-4.768v-469.338c.001-4.142-3.357-7.5-7.499-7.5zm-240.944 15h233.443v188.437h-233.443zm13.557 482h-11.272v-11.272h11.272zm218.497 0h-11.272v-11.272h11.272z"/><path d="m355.222 25.285h-23.785c-4.962 0-9 4.037-9 8.999v149.869c0 4.962 4.037 9 9 9h23.785c4.142 0 7.5-3.358 7.5-7.5v-95.345c0-4.142-3.358-7.5-7.5-7.5s-7.5 3.358-7.5 7.5v87.845h-10.285v-137.868h10.285v15.023c0 4.142 3.358 7.5 7.5 7.5s7.5-3.358 7.5-7.5v-22.523c0-4.142-3.358-7.5-7.5-7.5z"/><path d="m355.222 460.443c4.142 0 7.5-3.358 7.5-7.5v-216.722c0-4.142-3.358-7.5-7.5-7.5h-23.785c-4.962 0-9 4.037-9 9v213.723c0 4.962 4.037 8.999 9 8.999zm-17.785-216.722h10.285v201.722h-10.285z"/><path d="m233.769 67.402c.004-.011.009-.021.013-.032h12.093v61.976c0 6.389-5.197 11.586-11.585 11.586h-53.308c1.704-3.504 2.66-7.435 2.66-11.586v-15.195c0-4.142-3.358-7.5-7.5-7.5s-7.5 3.358-7.5 7.5v15.195c0 6.389-5.197 11.586-11.585 11.586-4.142 0-7.5 3.358-7.5 7.5s3.358 7.5 7.5 7.5h77.234c14.659 0 26.585-11.926 26.585-26.586v-68.177c.006-4.851-3.94-8.797-8.791-8.797h-18.296c-2.984-7.44-10.271-12.708-18.764-12.708s-15.78 5.268-18.765 12.708h-18.815c-4.851 0-8.797 3.946-8.797 8.797v17.983c0 4.142 3.358 7.5 7.5 7.5s7.5-3.358 7.5-7.5v-11.78h12.611c3.229 7.895 11.003 12.974 19.394 12.713 7.938-.247 15.063-5.23 18.116-12.683zm-23.952-7.53c0-2.872 2.336-5.208 5.208-5.208s5.208 2.336 5.208 5.208-2.336 5.208-5.208 5.208-5.208-2.336-5.208-5.208z"/><path d="m201.433 105.364h26.665c4.142 0 7.5-3.358 7.5-7.5s-3.358-7.5-7.5-7.5h-26.665c-4.142 0-7.5 3.358-7.5 7.5s3.358 7.5 7.5 7.5z"/><path d="m201.433 130.649h26.665c4.142 0 7.5-3.358 7.5-7.5s-3.358-7.5-7.5-7.5h-26.665c-4.142 0-7.5 3.358-7.5 7.5s3.358 7.5 7.5 7.5z"/><path d="m160.283 379.57c1.389 2.406 3.91 3.751 6.502 3.751 1.272 0 2.562-.324 3.743-1.006l11.695-6.752-1.099 4.101c-1.072 4.001 1.302 8.113 5.303 9.186.65.174 1.303.257 1.946.257 3.311 0 6.342-2.21 7.24-5.561l4.981-18.589 13.925-8.04c2.525 2.282 5.528 4.045 8.838 5.117v16.066l-13.609 13.608c-2.929 2.929-2.929 7.677 0 10.606 2.929 2.93 7.678 2.929 10.606 0l3.002-3.002v13.505c0 4.142 3.358 7.5 7.5 7.5s7.5-3.358 7.5-7.5v-13.504l3.002 3.002c1.464 1.464 3.384 2.197 5.303 2.197s3.839-.732 5.303-2.197c2.929-2.929 2.929-7.678 0-10.606l-13.606-13.609v-16.065c3.311-1.072 6.313-2.835 8.838-5.117l13.925 8.04 4.981 18.589c.898 3.351 3.928 5.561 7.24 5.561.643 0 1.296-.083 1.946-.257 4.001-1.072 6.375-5.185 5.304-9.186l-1.099-4.101 11.695 6.752c1.181.682 2.471 1.006 3.743 1.006 2.592 0 5.113-1.346 6.502-3.751 2.071-3.587.842-8.174-2.745-10.245l-11.695-6.752 4.101-1.099c4.001-1.072 6.375-5.185 5.304-9.186-1.072-4.001-5.188-6.373-9.186-5.303l-18.59 4.981-13.912-8.032c.353-1.648.539-3.358.539-5.11s-.186-3.462-.539-5.11l13.912-8.032 18.59 4.981c.65.174 1.303.257 1.946.257 3.311 0 6.342-2.21 7.24-5.561 1.072-4.001-1.302-8.114-5.304-9.186l-4.101-1.099 11.695-6.752c3.587-2.071 4.816-6.658 2.745-10.245-2.071-3.588-6.658-4.816-10.245-2.745l-11.695 6.752 1.099-4.101c1.072-4.001-1.302-8.113-5.304-9.186-3.994-1.068-8.113 1.302-9.186 5.304l-4.981 18.589-13.925 8.04c-2.525-2.282-5.527-4.044-8.838-5.117v-16.065l13.608-13.608c2.929-2.929 2.929-7.678 0-10.606-2.929-2.929-7.678-2.929-10.606 0l-3.002 3.002v-13.504c0-4.142-3.358-7.5-7.5-7.5s-7.5 3.358-7.5 7.5v13.505l-3.002-3.002c-2.929-2.929-7.678-2.929-10.606 0-2.929 2.929-2.929 7.678 0 10.606l13.609 13.608v16.065c-3.311 1.072-6.314 2.835-8.838 5.117l-13.925-8.04-4.981-18.589c-1.072-4.001-5.183-6.374-9.186-5.304-4.001 1.072-6.375 5.185-5.303 9.186l1.099 4.101-11.695-6.752c-3.588-2.072-8.174-.842-10.245 2.745s-.842 8.174 2.745 10.245l11.695 6.752-4.101 1.099c-4.001 1.072-6.375 5.185-5.303 9.186.898 3.351 3.928 5.561 7.24 5.561.643 0 1.296-.083 1.946-.257l18.59-4.981 13.913 8.032c-.353 1.648-.539 3.358-.539 5.11s.186 3.462.539 5.11l-13.913 8.032-18.59-4.981c-3.994-1.069-8.113 1.302-9.186 5.303-1.072 4.001 1.302 8.114 5.303 9.186l4.101 1.099-11.695 6.752c-3.589 2.069-4.818 6.656-2.747 10.243zm79.964-40.746c0 5.177-4.212 9.39-9.389 9.39s-9.39-4.212-9.39-9.39 4.212-9.39 9.39-9.39 9.389 4.213 9.389 9.39z"/></g></svg>