<svg id="Capa_1" enable-background="new 0 0 512 512" height="512" viewBox="0 0 512 512" width="512" xmlns="http://www.w3.org/2000/svg"><g><path d="m483.044 24.591h-368.728c-.175-9.901-8.27-17.904-18.212-17.904h-62.857c-18.332 0-33.247 14.915-33.247 33.247v432.133c0 18.332 14.915 33.247 33.247 33.247h62.857c9.942 0 18.037-8.004 18.212-17.904h178.986c4.142 0 7.5-3.357 7.5-7.5s-3.358-7.5-7.5-7.5h-178.97v-15h360.168c4.142 0 7.5-3.357 7.5-7.5v-387.819c0-4.143-3.358-7.5-7.5-7.5h-45.802c-4.142 0-7.5 3.357-7.5 7.5s3.358 7.5 7.5 7.5h38.302v192.421h-46.864c.653-2.052 1.01-4.234 1.01-6.5v-70.471c0-8.137-2.615-15.841-7.563-22.281-5.378-7-8.221-15.14-8.221-23.538v-33.753c0-9.649-7.851-17.5-17.5-17.5h-12.667c-9.649 0-17.5 7.851-17.5 17.5v33.753c0 8.398-2.843 16.538-8.221 23.538-4.948 6.44-7.563 14.145-7.563 22.281v70.471c0 2.266.357 4.448 1.01 6.5h-13.645c.653-2.052 1.01-4.234 1.01-6.5v-70.471c0-8.137-2.615-15.841-7.563-22.281-5.378-7-8.221-15.14-8.221-23.538v-33.753c0-9.649-7.851-17.5-17.5-17.5h-12.667c-9.649 0-17.5 7.851-17.5 17.5v33.753c0 8.398-2.843 16.538-8.221 23.538-4.948 6.44-7.563 14.145-7.563 22.281v70.471c0 2.266.357 4.448 1.01 6.5h-13.645c.653-2.052 1.01-4.234 1.01-6.5v-70.471c0-8.137-2.615-15.841-7.563-22.281-5.378-7-8.221-15.14-8.221-23.538v-33.753c0-9.649-7.851-17.5-17.5-17.5h-12.667c-9.649 0-17.5 7.851-17.5 17.5v33.753c0 8.398-2.843 16.538-8.221 23.538-4.948 6.44-7.563 14.145-7.563 22.281v70.471c0 2.266.357 4.448 1.01 6.5h-46.866v-127.315c0-4.143-3.358-7.5-7.5-7.5s-7.5 3.357-7.5 7.5v202.803h-18.335c-4.142 0-7.5 3.357-7.5 7.5v82c0 4.143 3.358 7.5 7.5 7.5h18.333v52.586c0 1.779-1.448 3.228-3.228 3.228h-62.858c-10.062 0-18.247-8.186-18.247-18.247v-432.133c0-10.062 8.186-18.247 18.247-18.247h62.857c1.78 0 3.228 1.448 3.228 3.228v74.389c0 4.143 3.358 7.5 7.5 7.5s7.5-3.357 7.5-7.5v-29.713h278.97c4.142 0 7.5-3.357 7.5-7.5s-3.358-7.5-7.5-7.5h-278.97v-15h368.712c7.695 0 13.956 6.261 13.956 13.956v404.906c0 7.695-6.26 13.956-13.956 13.956h-154.346c-4.142 0-7.5 3.357-7.5 7.5s3.358 7.5 7.5 7.5h154.347c15.966 0 28.956-12.989 28.956-28.956v-404.906c-.001-15.967-12.99-28.956-28.957-28.956zm-327.383 393.858c0-13.206 10.743-23.949 23.948-23.949s23.948 10.743 23.948 23.949c0 13.205-10.743 23.948-23.948 23.948s-23.948-10.743-23.948-23.948zm179.29 23.948h-3.865c-31.625-11.317-40.043-34.427-42.186-47.897h46.05v47.897zm-61.198-47.897c1.539 12.192 7.129 32.345 26.437 47.897h-3.069c-31.623-11.321-40.041-34.429-42.184-47.897zm-31.553 11.672c3.268 11.313 10.058 24.973 24.029 36.226h-24.029zm131.784 12.277c0-13.206 10.743-23.949 23.948-23.949 13.206 0 23.949 10.743 23.949 23.949 0 13.205-10.743 23.948-23.949 23.948-13.204 0-23.948-10.743-23.948-23.948zm54.622 23.96c5.177-6.613 8.276-14.929 8.276-23.96 0-21.477-17.472-38.949-38.949-38.949-21.476 0-38.948 17.473-38.948 38.949 0 9.031 3.098 17.347 8.276 23.96h-17.309v-49.329c0-7.488-6.092-13.58-13.58-13.58h-94.395c-8.147 0-14.775 6.628-14.775 14.775v48.134h-16.919c5.177-6.613 8.276-14.929 8.276-23.96 0-21.477-17.472-38.949-38.948-38.949s-38.948 17.473-38.948 38.949c0 9.031 3.098 17.347 8.276 23.96h-34.604v-76.909h131.98c.172.002.344.013.516.013.171 0 .343-.01.514-.013h219.655v76.909zm-287.033-114.282c0-12.331 10.032-22.363 22.363-22.363 12.332 0 22.364 10.032 22.364 22.363s-10.032 22.363-22.364 22.363c-12.331 0-22.363-10.032-22.363-22.363zm84.589-8.544c3.561-8.609 11.911-13.817 20.696-13.817 2.842 0 5.731.546 8.517 1.697 11.396 4.712 16.833 17.816 12.12 29.212-4.712 11.396-17.816 16.832-29.212 12.12-5.52-2.283-9.821-6.578-12.11-12.096-2.291-5.517-2.294-11.596-.011-17.116zm98.109-13.147c1.822-.458 3.647-.677 5.446-.677 10.008 0 19.146 6.78 21.692 16.918 3.004 11.96-4.282 24.134-16.241 27.138-11.957 3.009-24.134-4.281-27.138-16.241-3.005-11.96 4.281-24.135 16.241-27.138zm83.883 0c1.822-.458 3.647-.677 5.446-.677 10.009 0 19.146 6.78 21.692 16.918 3.004 11.959-4.282 24.134-16.242 27.138-11.959 3.005-24.134-4.281-27.138-16.241s4.283-24.135 16.242-27.138zm-35.459-200.967c0-1.379 1.122-2.5 2.5-2.5h12.667c1.378 0 2.5 1.121 2.5 2.5v33.753c0 9.624 2.794 19.272 7.938 27.719l-13.819 13.82c-1.629 1.629-4.278 1.629-5.907 0l-13.818-13.818c5.145-8.448 7.939-18.095 7.939-27.72zm-15.784 150.043v-70.471c0-1.46.16-2.892.44-4.29l10.616 10.616c3.739 3.738 8.649 5.606 13.56 5.606s9.822-1.869 13.56-5.607l10.619-10.618c.281 1.399.441 2.832.441 4.293v70.471c0 3.584-2.916 6.5-6.5 6.5h-36.235c-3.585 0-6.501-2.916-6.501-6.5zm-75.077-150.043c0-1.379 1.122-2.5 2.5-2.5h12.667c1.378 0 2.5 1.121 2.5 2.5v33.753c0 9.624 2.794 19.271 7.938 27.718l-13.819 13.82c-1.627 1.629-4.278 1.63-5.907 0l-13.818-13.818c5.145-8.448 7.939-18.095 7.939-27.72zm-15.784 150.043v-70.471c0-1.46.16-2.892.44-4.29l10.617 10.617c3.739 3.738 8.649 5.606 13.56 5.606s9.822-1.869 13.56-5.607l10.619-10.618c.281 1.399.441 2.832.441 4.293v70.471c0 3.584-2.916 6.5-6.5 6.5h-36.237c-3.584-.001-6.5-2.917-6.5-6.501zm-75.077-150.043c0-1.379 1.122-2.5 2.5-2.5h12.667c1.378 0 2.5 1.121 2.5 2.5v33.753c0 9.624 2.794 19.271 7.938 27.719l-13.82 13.82c-1.627 1.629-4.278 1.63-5.907 0l-13.818-13.818c5.144-8.447 7.939-18.095 7.939-27.72v-33.754zm-15.784 150.043v-70.471c0-1.46.16-2.892.44-4.29l10.617 10.617c3.739 3.738 8.649 5.606 13.56 5.606s9.822-1.869 13.56-5.606l10.619-10.619c.281 1.399.44 2.832.44 4.292v70.471c0 3.584-2.916 6.5-6.5 6.5h-36.235c-3.585 0-6.501-2.916-6.501-6.5zm291.811 21.5v73.488h-23.501c6.5-8.702 9.188-20.146 6.341-31.478-5.019-19.981-25.36-32.147-45.34-27.136-19.981 5.021-32.154 25.359-27.135 45.341 1.244 4.953 3.435 9.422 6.323 13.272h-24.074c6.5-8.702 9.187-20.146 6.341-31.478-5.019-19.981-25.361-32.15-45.34-27.136-19.981 5.021-32.154 25.359-27.135 45.341 1.244 4.953 3.435 9.422 6.323 13.272h-23.033c1.836-2.467 3.38-5.177 4.586-8.093 3.814-9.223 3.808-19.379-.017-28.597s-11.01-16.396-20.232-20.209c-19.04-7.871-40.933 1.211-48.806 20.249-5.209 12.597-2.99 26.441 4.62 36.649h-23.078c4.681-6.241 7.458-13.989 7.458-22.373 0-20.603-16.761-37.363-37.364-37.363-20.602 0-37.363 16.761-37.363 37.363 0 8.384 2.777 16.132 7.458 22.373h-19.698v-73.488h352.666zm-378.5 142.488v-67h10.833v67z"/><path d="m171.436 328.127v-8.179c0-4.143-3.358-7.5-7.5-7.5s-7.5 3.357-7.5 7.5v8.179c0 4.143 3.358 7.5 7.5 7.5s7.5-3.357 7.5-7.5z"/><path d="m236.404 331.934 7.558 3.126c.938.388 1.909.571 2.864.571 2.944 0 5.738-1.745 6.934-4.636 1.583-3.827-.236-8.214-4.064-9.797l-7.558-3.126c-3.828-1.584-8.214.235-9.797 4.064-1.585 3.828.235 8.215 4.063 9.798z"/><path d="m329.713 335.627c.604 0 1.219-.074 1.832-.228l7.933-1.992c4.018-1.009 6.457-5.084 5.447-9.102-1.009-4.017-5.083-6.452-9.101-5.447l-7.933 1.992c-4.018 1.009-6.457 5.084-5.447 9.102.856 3.404 3.911 5.675 7.269 5.675z"/><path d="m413.597 335.627c.604 0 1.219-.074 1.832-.228l7.933-1.992c4.018-1.009 6.457-5.084 5.447-9.102-1.008-4.017-5.083-6.452-9.101-5.447l-7.933 1.992c-4.018 1.009-6.457 5.084-5.447 9.102.856 3.404 3.911 5.675 7.269 5.675z"/><path d="m187.109 418.449v-8.613c0-4.143-3.358-7.5-7.5-7.5s-7.5 3.357-7.5 7.5v8.613c0 4.143 3.358 7.5 7.5 7.5s7.5-3.357 7.5-7.5z"/><path d="m405.433 418.449v-8.613c0-4.143-3.358-7.5-7.5-7.5s-7.5 3.357-7.5 7.5v8.613c0 4.143 3.358 7.5 7.5 7.5s7.5-3.357 7.5-7.5z"/><path d="m319.321 418.668c4.142 0 7.5-3.357 7.5-7.5v-4.778c0-4.143-3.358-7.5-7.5-7.5s-7.5 3.357-7.5 7.5v4.778c0 4.143 3.358 7.5 7.5 7.5z"/></g></svg>